<?xml version="1.0" encoding="UTF-8" standalone="no"?>
<!DOCTYPE svg PUBLIC "-//W3C//DTD SVG 1.1//EN"
 "http://www.w3.org/Graphics/SVG/1.1/DTD/svg11.dtd">
<!-- Generated by graphviz version 2.49.0 (20210828.1703)
 -->
<!-- Title: G Pages: 1 -->
<svg width="1294pt" height="802pt"
 viewBox="0.00 0.00 1294.00 802.00" xmlns="http://www.w3.org/2000/svg" xmlns:xlink="http://www.w3.org/1999/xlink">
<g id="graph0" class="graph" transform="scale(1 1) rotate(0) translate(4 798)">
<title>G</title>
<polygon fill="white" stroke="transparent" points="-4,4 -4,-798 1290,-798 1290,4 -4,4"/>
<!-- S1aL1a -->
<g id="node1" class="node">
<title>S1aL1a</title>
<polygon fill="green" stroke="black" points="349.5,-664.5 349.5,-710.5 449.5,-710.5 449.5,-664.5 349.5,-664.5"/>
<text text-anchor="middle" x="368.5" y="-683.8" font-family="Times,serif" font-size="14.00">L1a</text>
<polyline fill="none" stroke="black" points="387.5,-664.5 387.5,-710.5 "/>
<text text-anchor="middle" x="418.5" y="-695.3" font-family="Times,serif" font-size="14.00">Login</text>
<polyline fill="none" stroke="black" points="387.5,-687.5 449.5,-687.5 "/>
<text text-anchor="middle" x="418.5" y="-672.3" font-family="Times,serif" font-size="14.00">[state 1]</text>
</g>
<!-- S1aL1b -->
<g id="node16" class="node">
<title>S1aL1b</title>
<polygon fill="green" stroke="black" points="333,-581.5 333,-627.5 450,-627.5 450,-581.5 333,-581.5"/>
<text text-anchor="middle" x="352.5" y="-600.8" font-family="Times,serif" font-size="14.00">L1b</text>
<polyline fill="none" stroke="black" points="372,-581.5 372,-627.5 "/>
<text text-anchor="middle" x="411" y="-612.3" font-family="Times,serif" font-size="14.00">Login</text>
<polyline fill="none" stroke="black" points="372,-604.5 450,-604.5 "/>
<text text-anchor="middle" x="411" y="-589.3" font-family="Times,serif" font-size="14.00">??state 1??</text>
</g>
<!-- S1aL1a&#45;&gt;S1aL1b -->
<g id="edge16" class="edge">
<title>S1aL1a&#45;&gt;S1aL1b</title>
<path fill="none" stroke="black" d="M397.31,-664.37C396.5,-656.15 395.56,-646.66 394.68,-637.73"/>
<polygon fill="black" stroke="black" points="398.15,-637.21 393.68,-627.61 391.18,-637.9 398.15,-637.21"/>
</g>
<!-- S1aL1bR1a -->
<g id="node2" class="node">
<title>S1aL1bR1a</title>
<polygon fill="red" stroke="black" points="330,-498.5 330,-544.5 451,-544.5 451,-498.5 330,-498.5"/>
<text text-anchor="middle" x="349.5" y="-517.8" font-family="Times,serif" font-size="14.00">R1a</text>
<polyline fill="none" stroke="black" points="369,-498.5 369,-544.5 "/>
<text text-anchor="middle" x="410" y="-529.3" font-family="Times,serif" font-size="14.00">event 1</text>
<polyline fill="none" stroke="black" points="369,-521.5 451,-521.5 "/>
<text text-anchor="middle" x="410" y="-506.3" font-family="Times,serif" font-size="14.00">??event 1??</text>
</g>
<!-- S1aL1bR1b -->
<g id="node3" class="node">
<title>S1aL1bR1b</title>
<polygon fill="red" stroke="black" points="322,-415.5 322,-461.5 451,-461.5 451,-415.5 322,-415.5"/>
<text text-anchor="middle" x="342" y="-434.8" font-family="Times,serif" font-size="14.00">R1b</text>
<polyline fill="none" stroke="black" points="362,-415.5 362,-461.5 "/>
<text text-anchor="middle" x="406.5" y="-446.3" font-family="Times,serif" font-size="14.00">component 2</text>
<polyline fill="none" stroke="black" points="362,-438.5 451,-438.5 "/>
<text text-anchor="middle" x="406.5" y="-423.3" font-family="Times,serif" font-size="14.00">[state 2]</text>
</g>
<!-- S1aL1bR1a&#45;&gt;S1aL1bR1b -->
<g id="edge3" class="edge">
<title>S1aL1bR1a&#45;&gt;S1aL1bR1b</title>
<path fill="none" stroke="black" d="M389.41,-498.37C389,-490.15 388.53,-480.66 388.09,-471.73"/>
<polygon fill="black" stroke="black" points="391.58,-471.42 387.59,-461.61 384.59,-471.77 391.58,-471.42"/>
</g>
<!-- S1aL1bR1c -->
<g id="node4" class="node">
<title>S1aL1bR1c</title>
<polygon fill="red" stroke="black" points="273.5,-332.5 273.5,-378.5 401.5,-378.5 401.5,-332.5 273.5,-332.5"/>
<text text-anchor="middle" x="293" y="-351.8" font-family="Times,serif" font-size="14.00">R1c</text>
<polyline fill="none" stroke="black" points="312.5,-332.5 312.5,-378.5 "/>
<text text-anchor="middle" x="357" y="-363.3" font-family="Times,serif" font-size="14.00">component 3</text>
<polyline fill="none" stroke="black" points="312.5,-355.5 401.5,-355.5 "/>
<text text-anchor="middle" x="357" y="-340.3" font-family="Times,serif" font-size="14.00">[state 3]</text>
</g>
<!-- S1aL1bR1b&#45;&gt;S1aL1bR1c -->
<g id="edge4" class="edge">
<title>S1aL1bR1b&#45;&gt;S1aL1bR1c</title>
<path fill="none" stroke="black" d="M373.11,-415.37C367.87,-406.71 361.77,-396.62 356.12,-387.27"/>
<polygon fill="black" stroke="black" points="359.04,-385.35 350.87,-378.61 353.05,-388.97 359.04,-385.35"/>
</g>
<!-- S1aL1bR1d -->
<g id="node5" class="node">
<title>S1aL1bR1d</title>
<polygon fill="red" stroke="black" points="249,-249.5 249,-295.5 378,-295.5 378,-249.5 249,-249.5"/>
<text text-anchor="middle" x="269" y="-268.8" font-family="Times,serif" font-size="14.00">R1d</text>
<polyline fill="none" stroke="black" points="289,-249.5 289,-295.5 "/>
<text text-anchor="middle" x="333.5" y="-280.3" font-family="Times,serif" font-size="14.00">component 4</text>
<polyline fill="none" stroke="black" points="289,-272.5 378,-272.5 "/>
<text text-anchor="middle" x="333.5" y="-257.3" font-family="Times,serif" font-size="14.00">[state 4]</text>
</g>
<!-- S1aL1bR1c&#45;&gt;S1aL1bR1d -->
<g id="edge5" class="edge">
<title>S1aL1bR1c&#45;&gt;S1aL1bR1d</title>
<path fill="none" stroke="black" d="M330.94,-332.37C328.48,-324.06 325.63,-314.45 322.96,-305.43"/>
<polygon fill="black" stroke="black" points="326.25,-304.2 320.05,-295.61 319.54,-306.19 326.25,-304.2"/>
</g>
<!-- S1aL1bR1d1a -->
<g id="node6" class="node">
<title>S1aL1bR1d1a</title>
<polygon fill="red" stroke="black" points="0,-166.5 0,-212.5 145,-212.5 145,-166.5 0,-166.5"/>
<text text-anchor="middle" x="26.5" y="-185.8" font-family="Times,serif" font-size="14.00">R1d1a</text>
<polyline fill="none" stroke="black" points="53,-166.5 53,-212.5 "/>
<text text-anchor="middle" x="99" y="-197.3" font-family="Times,serif" font-size="14.00">guard 1</text>
<polyline fill="none" stroke="black" points="53,-189.5 145,-189.5 "/>
<text text-anchor="middle" x="99" y="-174.3" font-family="Times,serif" font-size="14.00">???state A???</text>
</g>
<!-- S1aL1bR1d&#45;&gt;S1aL1bR1d1a -->
<g id="edge6" class="edge">
<title>S1aL1bR1d&#45;&gt;S1aL1bR1d1a</title>
<path fill="none" stroke="black" d="M248.92,-249.79C217.83,-239.35 180.37,-226.76 147.98,-215.87"/>
<polygon fill="black" stroke="black" points="148.69,-212.42 138.1,-212.55 146.46,-219.05 148.69,-212.42"/>
</g>
<!-- S1aL1bR1d2a -->
<g id="node8" class="node">
<title>S1aL1bR1d2a</title>
<polygon fill="red" stroke="black" points="163,-166.5 163,-212.5 308,-212.5 308,-166.5 163,-166.5"/>
<text text-anchor="middle" x="189.5" y="-185.8" font-family="Times,serif" font-size="14.00">R1d2a</text>
<polyline fill="none" stroke="black" points="216,-166.5 216,-212.5 "/>
<text text-anchor="middle" x="262" y="-197.3" font-family="Times,serif" font-size="14.00">guard 2</text>
<polyline fill="none" stroke="black" points="216,-189.5 308,-189.5 "/>
<text text-anchor="middle" x="262" y="-174.3" font-family="Times,serif" font-size="14.00">???state B???</text>
</g>
<!-- S1aL1bR1d&#45;&gt;S1aL1bR1d2a -->
<g id="edge8" class="edge">
<title>S1aL1bR1d&#45;&gt;S1aL1bR1d2a</title>
<path fill="none" stroke="black" d="M292.19,-249.37C283.42,-240.26 273.13,-229.58 263.75,-219.83"/>
<polygon fill="black" stroke="black" points="266.25,-217.38 256.79,-212.61 261.2,-222.24 266.25,-217.38"/>
</g>
<!-- S1aL1bR1e -->
<g id="node12" class="node">
<title>S1aL1bR1e</title>
<polygon fill="red" stroke="black" points="326.5,-166.5 326.5,-212.5 454.5,-212.5 454.5,-166.5 326.5,-166.5"/>
<text text-anchor="middle" x="346" y="-185.8" font-family="Times,serif" font-size="14.00">R1e</text>
<polyline fill="none" stroke="black" points="365.5,-166.5 365.5,-212.5 "/>
<text text-anchor="middle" x="410" y="-197.3" font-family="Times,serif" font-size="14.00">component 5</text>
<polyline fill="none" stroke="black" points="365.5,-189.5 454.5,-189.5 "/>
<text text-anchor="middle" x="410" y="-174.3" font-family="Times,serif" font-size="14.00">[state 5]</text>
</g>
<!-- S1aL1bR1d&#45;&gt;S1aL1bR1e -->
<g id="edge12" class="edge">
<title>S1aL1bR1d&#45;&gt;S1aL1bR1e</title>
<path fill="none" stroke="black" d="M334.54,-249.37C343.11,-240.35 353.15,-229.79 362.34,-220.12"/>
<polygon fill="black" stroke="black" points="365.13,-222.27 369.48,-212.61 360.06,-217.44 365.13,-222.27"/>
</g>
<!-- S1aL1bR1d1b -->
<g id="node7" class="node">
<title>S1aL1bR1d1b</title>
<polygon fill="red" stroke="black" points="1,-83.5 1,-129.5 144,-129.5 144,-83.5 1,-83.5"/>
<text text-anchor="middle" x="28" y="-102.8" font-family="Times,serif" font-size="14.00">R1d1b</text>
<polyline fill="none" stroke="black" points="55,-83.5 55,-129.5 "/>
<text text-anchor="middle" x="99.5" y="-114.3" font-family="Times,serif" font-size="14.00">component 3</text>
<polyline fill="none" stroke="black" points="55,-106.5 144,-106.5 "/>
<text text-anchor="middle" x="99.5" y="-91.3" font-family="Times,serif" font-size="14.00">[state 3a]</text>
</g>
<!-- S1aL1bR1d1a&#45;&gt;S1aL1bR1d1b -->
<g id="edge7" class="edge">
<title>S1aL1bR1d1a&#45;&gt;S1aL1bR1d1b</title>
<path fill="none" stroke="black" d="M72.5,-166.37C72.5,-158.15 72.5,-148.66 72.5,-139.73"/>
<polygon fill="black" stroke="black" points="76,-139.61 72.5,-129.61 69,-139.61 76,-139.61"/>
</g>
<!-- S1aL1bR1d2b -->
<g id="node9" class="node">
<title>S1aL1bR1d2b</title>
<polygon fill="red" stroke="black" points="163,-83.5 163,-129.5 306,-129.5 306,-83.5 163,-83.5"/>
<text text-anchor="middle" x="190" y="-102.8" font-family="Times,serif" font-size="14.00">R1d2b</text>
<polyline fill="none" stroke="black" points="217,-83.5 217,-129.5 "/>
<text text-anchor="middle" x="261.5" y="-114.3" font-family="Times,serif" font-size="14.00">component 3</text>
<polyline fill="none" stroke="black" points="217,-106.5 306,-106.5 "/>
<text text-anchor="middle" x="261.5" y="-91.3" font-family="Times,serif" font-size="14.00">[state 3b]</text>
</g>
<!-- S1aL1bR1d2a&#45;&gt;S1aL1bR1d2b -->
<g id="edge9" class="edge">
<title>S1aL1bR1d2a&#45;&gt;S1aL1bR1d2b</title>
<path fill="none" stroke="black" d="M235.23,-166.37C235.13,-158.15 235.01,-148.66 234.9,-139.73"/>
<polygon fill="black" stroke="black" points="238.4,-139.56 234.77,-129.61 231.4,-139.65 238.4,-139.56"/>
</g>
<!-- S1aL1bR1eR2a -->
<g id="node10" class="node">
<title>S1aL1bR1eR2a</title>
<polygon fill="red" stroke="black" points="324.5,-83.5 324.5,-129.5 404.5,-129.5 404.5,-83.5 324.5,-83.5"/>
<text text-anchor="middle" x="344" y="-102.8" font-family="Times,serif" font-size="14.00">R2a</text>
<polyline fill="none" stroke="black" points="363.5,-83.5 363.5,-129.5 "/>
<text text-anchor="middle" x="384" y="-114.3" font-family="Times,serif" font-size="14.00"> </text>
<polyline fill="none" stroke="black" points="363.5,-106.5 404.5,-106.5 "/>
<text text-anchor="middle" x="384" y="-91.3" font-family="Times,serif" font-size="14.00">????</text>
</g>
<!-- S1aL1bR1eR2b -->
<g id="node11" class="node">
<title>S1aL1bR1eR2b</title>
<polygon fill="red" stroke="black" points="316,-0.5 316,-46.5 397,-46.5 397,-0.5 316,-0.5"/>
<text text-anchor="middle" x="336" y="-19.8" font-family="Times,serif" font-size="14.00">R2b</text>
<polyline fill="none" stroke="black" points="356,-0.5 356,-46.5 "/>
<text text-anchor="middle" x="376.5" y="-31.3" font-family="Times,serif" font-size="14.00"> </text>
<polyline fill="none" stroke="black" points="356,-23.5 397,-23.5 "/>
<text text-anchor="middle" x="376.5" y="-8.3" font-family="Times,serif" font-size="14.00">????</text>
</g>
<!-- S1aL1bR1eR2a&#45;&gt;S1aL1bR1eR2b -->
<g id="edge11" class="edge">
<title>S1aL1bR1eR2a&#45;&gt;S1aL1bR1eR2b</title>
<path fill="none" stroke="black" d="M362.31,-83.37C361.5,-75.15 360.56,-65.66 359.68,-56.73"/>
<polygon fill="black" stroke="black" points="363.15,-56.21 358.68,-46.61 356.18,-56.9 363.15,-56.21"/>
</g>
<!-- S1aL1bR1e&#45;&gt;S1aL1bR1eR2a -->
<g id="edge10" class="edge">
<title>S1aL1bR1e&#45;&gt;S1aL1bR1eR2a</title>
<path fill="none" stroke="black" d="M383.4,-166.37C380.7,-157.97 377.58,-148.24 374.66,-139.14"/>
<polygon fill="black" stroke="black" points="377.98,-138.06 371.6,-129.61 371.32,-140.2 377.98,-138.06"/>
</g>
<!-- S1aL1bR1f -->
<g id="node13" class="node">
<title>S1aL1bR1f</title>
<polygon fill="red" stroke="black" points="422.5,-83.5 422.5,-129.5 548.5,-129.5 548.5,-83.5 422.5,-83.5"/>
<text text-anchor="middle" x="441" y="-102.8" font-family="Times,serif" font-size="14.00">R1f</text>
<polyline fill="none" stroke="black" points="459.5,-83.5 459.5,-129.5 "/>
<text text-anchor="middle" x="504" y="-114.3" font-family="Times,serif" font-size="14.00">component 6</text>
<polyline fill="none" stroke="black" points="459.5,-106.5 548.5,-106.5 "/>
<text text-anchor="middle" x="504" y="-91.3" font-family="Times,serif" font-size="14.00">[state 6]</text>
</g>
<!-- S1aL1bR1e&#45;&gt;S1aL1bR1f -->
<g id="edge13" class="edge">
<title>S1aL1bR1e&#45;&gt;S1aL1bR1f</title>
<path fill="none" stroke="black" d="M416.46,-166.37C427.35,-157.08 440.16,-146.16 451.77,-136.26"/>
<polygon fill="black" stroke="black" points="454.23,-138.76 459.57,-129.61 449.69,-133.43 454.23,-138.76"/>
</g>
<!-- S1aL1bR1f1a -->
<g id="node14" class="node">
<title>S1aL1bR1f1a</title>
<polygon fill="red" stroke="black" points="415.5,-0.5 415.5,-46.5 555.5,-46.5 555.5,-0.5 415.5,-0.5"/>
<text text-anchor="middle" x="441" y="-19.8" font-family="Times,serif" font-size="14.00">R1f1a</text>
<polyline fill="none" stroke="black" points="466.5,-0.5 466.5,-46.5 "/>
<text text-anchor="middle" x="511" y="-31.3" font-family="Times,serif" font-size="14.00">component 7</text>
<polyline fill="none" stroke="black" points="466.5,-23.5 555.5,-23.5 "/>
<text text-anchor="middle" x="511" y="-8.3" font-family="Times,serif" font-size="14.00">[state 7]</text>
</g>
<!-- S1aL1bR1f&#45;&gt;S1aL1bR1f1a -->
<g id="edge14" class="edge">
<title>S1aL1bR1f&#45;&gt;S1aL1bR1f1a</title>
<path fill="none" stroke="black" d="M485.5,-83.37C485.5,-75.15 485.5,-65.66 485.5,-56.73"/>
<polygon fill="black" stroke="black" points="489,-56.61 485.5,-46.61 482,-56.61 489,-56.61"/>
</g>
<!-- S1aL1bR1g -->
<g id="node15" class="node">
<title>S1aL1bR1g</title>
<polygon fill="red" stroke="black" points="574,-0.5 574,-46.5 703,-46.5 703,-0.5 574,-0.5"/>
<text text-anchor="middle" x="594" y="-19.8" font-family="Times,serif" font-size="14.00">R1g</text>
<polyline fill="none" stroke="black" points="614,-0.5 614,-46.5 "/>
<text text-anchor="middle" x="658.5" y="-31.3" font-family="Times,serif" font-size="14.00">component 8</text>
<polyline fill="none" stroke="black" points="614,-23.5 703,-23.5 "/>
<text text-anchor="middle" x="658.5" y="-8.3" font-family="Times,serif" font-size="14.00">[state 8]</text>
</g>
<!-- S1aL1bR1f&#45;&gt;S1aL1bR1g -->
<g id="edge15" class="edge">
<title>S1aL1bR1f&#45;&gt;S1aL1bR1g</title>
<path fill="none" stroke="black" d="M527.31,-83.37C545.94,-73.5 568.07,-61.79 587.65,-51.42"/>
<polygon fill="black" stroke="black" points="589.54,-54.38 596.74,-46.61 586.27,-48.19 589.54,-54.38"/>
</g>
<!-- S1aL1b&#45;&gt;S1aL1bR1a -->
<g id="edge2" class="edge">
<title>S1aL1b&#45;&gt;S1aL1bR1a</title>
<path fill="none" stroke="black" d="M391.23,-581.37C391.13,-573.15 391.01,-563.66 390.9,-554.73"/>
<polygon fill="black" stroke="black" points="394.4,-554.56 390.77,-544.61 387.4,-554.65 394.4,-554.56"/>
</g>
<!-- S1aL2a -->
<g id="node17" class="node">
<title>S1aL2a</title>
<polygon fill="green" stroke="black" points="479.5,-664.5 479.5,-710.5 581.5,-710.5 581.5,-664.5 479.5,-664.5"/>
<text text-anchor="middle" x="498.5" y="-683.8" font-family="Times,serif" font-size="14.00">L2a</text>
<polyline fill="none" stroke="black" points="517.5,-664.5 517.5,-710.5 "/>
<text text-anchor="middle" x="549.5" y="-695.3" font-family="Times,serif" font-size="14.00">Login</text>
<polyline fill="none" stroke="black" points="517.5,-687.5 581.5,-687.5 "/>
<text text-anchor="middle" x="549.5" y="-672.3" font-family="Times,serif" font-size="14.00">[state A]</text>
</g>
<!-- S1aL2b -->
<g id="node32" class="node">
<title>S1aL2b</title>
<polygon fill="green" stroke="black" points="483,-581.5 483,-627.5 602,-627.5 602,-581.5 483,-581.5"/>
<text text-anchor="middle" x="502.5" y="-600.8" font-family="Times,serif" font-size="14.00">L2b</text>
<polyline fill="none" stroke="black" points="522,-581.5 522,-627.5 "/>
<text text-anchor="middle" x="562" y="-612.3" font-family="Times,serif" font-size="14.00">Login</text>
<polyline fill="none" stroke="black" points="522,-604.5 602,-604.5 "/>
<text text-anchor="middle" x="562" y="-589.3" font-family="Times,serif" font-size="14.00">??state B??</text>
</g>
<!-- S1aL2a&#45;&gt;S1aL2b -->
<g id="edge32" class="edge">
<title>S1aL2a&#45;&gt;S1aL2b</title>
<path fill="none" stroke="black" d="M533.78,-664.37C535,-656.15 536.4,-646.66 537.73,-637.73"/>
<polygon fill="black" stroke="black" points="541.22,-638.01 539.22,-627.61 534.3,-636.99 541.22,-638.01"/>
</g>
<!-- S1aL2bR1a -->
<g id="node18" class="node">
<title>S1aL2bR1a</title>
<polygon fill="red" stroke="black" points="497,-498.5 497,-544.5 618,-544.5 618,-498.5 497,-498.5"/>
<text text-anchor="middle" x="516.5" y="-517.8" font-family="Times,serif" font-size="14.00">R1a</text>
<polyline fill="none" stroke="black" points="536,-498.5 536,-544.5 "/>
<text text-anchor="middle" x="577" y="-529.3" font-family="Times,serif" font-size="14.00">event 1</text>
<polyline fill="none" stroke="black" points="536,-521.5 618,-521.5 "/>
<text text-anchor="middle" x="577" y="-506.3" font-family="Times,serif" font-size="14.00">??event 1??</text>
</g>
<!-- S1aL2bR1b -->
<g id="node19" class="node">
<title>S1aL2bR1b</title>
<polygon fill="red" stroke="black" points="521,-415.5 521,-461.5 650,-461.5 650,-415.5 521,-415.5"/>
<text text-anchor="middle" x="541" y="-434.8" font-family="Times,serif" font-size="14.00">R1b</text>
<polyline fill="none" stroke="black" points="561,-415.5 561,-461.5 "/>
<text text-anchor="middle" x="605.5" y="-446.3" font-family="Times,serif" font-size="14.00">component 2</text>
<polyline fill="none" stroke="black" points="561,-438.5 650,-438.5 "/>
<text text-anchor="middle" x="605.5" y="-423.3" font-family="Times,serif" font-size="14.00">[state 2]</text>
</g>
<!-- S1aL2bR1a&#45;&gt;S1aL2bR1b -->
<g id="edge19" class="edge">
<title>S1aL2bR1a&#45;&gt;S1aL2bR1b</title>
<path fill="none" stroke="black" d="M565.15,-498.37C568.05,-489.97 571.42,-480.24 574.56,-471.14"/>
<polygon fill="black" stroke="black" points="577.9,-472.2 577.86,-461.61 571.28,-469.91 577.9,-472.2"/>
</g>
<!-- S1aL2bR1c -->
<g id="node20" class="node">
<title>S1aL2bR1c</title>
<polygon fill="red" stroke="black" points="547.5,-332.5 547.5,-378.5 675.5,-378.5 675.5,-332.5 547.5,-332.5"/>
<text text-anchor="middle" x="567" y="-351.8" font-family="Times,serif" font-size="14.00">R1c</text>
<polyline fill="none" stroke="black" points="586.5,-332.5 586.5,-378.5 "/>
<text text-anchor="middle" x="631" y="-363.3" font-family="Times,serif" font-size="14.00">component 3</text>
<polyline fill="none" stroke="black" points="586.5,-355.5 675.5,-355.5 "/>
<text text-anchor="middle" x="631" y="-340.3" font-family="Times,serif" font-size="14.00">[state 3]</text>
</g>
<!-- S1aL2bR1b&#45;&gt;S1aL2bR1c -->
<g id="edge20" class="edge">
<title>S1aL2bR1b&#45;&gt;S1aL2bR1c</title>
<path fill="none" stroke="black" d="M592.6,-415.37C595.3,-406.97 598.42,-397.24 601.34,-388.14"/>
<polygon fill="black" stroke="black" points="604.68,-389.2 604.4,-378.61 598.02,-387.06 604.68,-389.2"/>
</g>
<!-- S1aL2bR1d -->
<g id="node21" class="node">
<title>S1aL2bR1d</title>
<polygon fill="red" stroke="black" points="654,-249.5 654,-295.5 783,-295.5 783,-249.5 654,-249.5"/>
<text text-anchor="middle" x="674" y="-268.8" font-family="Times,serif" font-size="14.00">R1d</text>
<polyline fill="none" stroke="black" points="694,-249.5 694,-295.5 "/>
<text text-anchor="middle" x="738.5" y="-280.3" font-family="Times,serif" font-size="14.00">component 4</text>
<polyline fill="none" stroke="black" points="694,-272.5 783,-272.5 "/>
<text text-anchor="middle" x="738.5" y="-257.3" font-family="Times,serif" font-size="14.00">[state 4]</text>
</g>
<!-- S1aL2bR1c&#45;&gt;S1aL2bR1d -->
<g id="edge21" class="edge">
<title>S1aL2bR1c&#45;&gt;S1aL2bR1d</title>
<path fill="none" stroke="black" d="M640.74,-332.37C653.24,-322.9 667.99,-311.74 681.26,-301.69"/>
<polygon fill="black" stroke="black" points="683.44,-304.43 689.3,-295.61 679.21,-298.85 683.44,-304.43"/>
</g>
<!-- S1aL2bR1d1a -->
<g id="node22" class="node">
<title>S1aL2bR1d1a</title>
<polygon fill="red" stroke="black" points="565,-166.5 565,-212.5 710,-212.5 710,-166.5 565,-166.5"/>
<text text-anchor="middle" x="591.5" y="-185.8" font-family="Times,serif" font-size="14.00">R1d1a</text>
<polyline fill="none" stroke="black" points="618,-166.5 618,-212.5 "/>
<text text-anchor="middle" x="664" y="-197.3" font-family="Times,serif" font-size="14.00">guard 1</text>
<polyline fill="none" stroke="black" points="618,-189.5 710,-189.5 "/>
<text text-anchor="middle" x="664" y="-174.3" font-family="Times,serif" font-size="14.00">???state A???</text>
</g>
<!-- S1aL2bR1d&#45;&gt;S1aL2bR1d1a -->
<g id="edge22" class="edge">
<title>S1aL2bR1d&#45;&gt;S1aL2bR1d1a</title>
<path fill="none" stroke="black" d="M696.37,-249.37C687.26,-240.26 676.58,-229.58 666.83,-219.83"/>
<polygon fill="black" stroke="black" points="669.15,-217.2 659.61,-212.61 664.2,-222.15 669.15,-217.2"/>
</g>
<!-- S1aL2bR1d2a -->
<g id="node24" class="node">
<title>S1aL2bR1d2a</title>
<polygon fill="red" stroke="black" points="728,-166.5 728,-212.5 873,-212.5 873,-166.5 728,-166.5"/>
<text text-anchor="middle" x="754.5" y="-185.8" font-family="Times,serif" font-size="14.00">R1d2a</text>
<polyline fill="none" stroke="black" points="781,-166.5 781,-212.5 "/>
<text text-anchor="middle" x="827" y="-197.3" font-family="Times,serif" font-size="14.00">guard 2</text>
<polyline fill="none" stroke="black" points="781,-189.5 873,-189.5 "/>
<text text-anchor="middle" x="827" y="-174.3" font-family="Times,serif" font-size="14.00">???state B???</text>
</g>
<!-- S1aL2bR1d&#45;&gt;S1aL2bR1d2a -->
<g id="edge24" class="edge">
<title>S1aL2bR1d&#45;&gt;S1aL2bR1d2a</title>
<path fill="none" stroke="black" d="M740.91,-249.37C750.13,-240.26 760.94,-229.58 770.8,-219.83"/>
<polygon fill="black" stroke="black" points="773.47,-222.12 778.12,-212.61 768.55,-217.14 773.47,-222.12"/>
</g>
<!-- S1aL2bR1e -->
<g id="node28" class="node">
<title>S1aL2bR1e</title>
<polygon fill="red" stroke="black" points="891.5,-166.5 891.5,-212.5 1019.5,-212.5 1019.5,-166.5 891.5,-166.5"/>
<text text-anchor="middle" x="911" y="-185.8" font-family="Times,serif" font-size="14.00">R1e</text>
<polyline fill="none" stroke="black" points="930.5,-166.5 930.5,-212.5 "/>
<text text-anchor="middle" x="975" y="-197.3" font-family="Times,serif" font-size="14.00">component 5</text>
<polyline fill="none" stroke="black" points="930.5,-189.5 1019.5,-189.5 "/>
<text text-anchor="middle" x="975" y="-174.3" font-family="Times,serif" font-size="14.00">[state 5]</text>
</g>
<!-- S1aL2bR1d&#45;&gt;S1aL2bR1e -->
<g id="edge28" class="edge">
<title>S1aL2bR1d&#45;&gt;S1aL2bR1e</title>
<path fill="none" stroke="black" d="M782.95,-249.47C813.51,-239.03 850.17,-226.5 881.82,-215.68"/>
<polygon fill="black" stroke="black" points="883.14,-218.93 891.48,-212.38 880.88,-212.3 883.14,-218.93"/>
</g>
<!-- S1aL2bR1d1b -->
<g id="node23" class="node">
<title>S1aL2bR1d1b</title>
<polygon fill="red" stroke="black" points="567,-83.5 567,-129.5 710,-129.5 710,-83.5 567,-83.5"/>
<text text-anchor="middle" x="594" y="-102.8" font-family="Times,serif" font-size="14.00">R1d1b</text>
<polyline fill="none" stroke="black" points="621,-83.5 621,-129.5 "/>
<text text-anchor="middle" x="665.5" y="-114.3" font-family="Times,serif" font-size="14.00">component 3</text>
<polyline fill="none" stroke="black" points="621,-106.5 710,-106.5 "/>
<text text-anchor="middle" x="665.5" y="-91.3" font-family="Times,serif" font-size="14.00">[state 3a]</text>
</g>
<!-- S1aL2bR1d1a&#45;&gt;S1aL2bR1d1b -->
<g id="edge23" class="edge">
<title>S1aL2bR1d1a&#45;&gt;S1aL2bR1d1b</title>
<path fill="none" stroke="black" d="M637.77,-166.37C637.87,-158.15 637.99,-148.66 638.1,-139.73"/>
<polygon fill="black" stroke="black" points="641.6,-139.65 638.23,-129.61 634.6,-139.56 641.6,-139.65"/>
</g>
<!-- S1aL2bR1d2b -->
<g id="node25" class="node">
<title>S1aL2bR1d2b</title>
<polygon fill="red" stroke="black" points="729,-83.5 729,-129.5 872,-129.5 872,-83.5 729,-83.5"/>
<text text-anchor="middle" x="756" y="-102.8" font-family="Times,serif" font-size="14.00">R1d2b</text>
<polyline fill="none" stroke="black" points="783,-83.5 783,-129.5 "/>
<text text-anchor="middle" x="827.5" y="-114.3" font-family="Times,serif" font-size="14.00">component 3</text>
<polyline fill="none" stroke="black" points="783,-106.5 872,-106.5 "/>
<text text-anchor="middle" x="827.5" y="-91.3" font-family="Times,serif" font-size="14.00">[state 3b]</text>
</g>
<!-- S1aL2bR1d2a&#45;&gt;S1aL2bR1d2b -->
<g id="edge25" class="edge">
<title>S1aL2bR1d2a&#45;&gt;S1aL2bR1d2b</title>
<path fill="none" stroke="black" d="M800.5,-166.37C800.5,-158.15 800.5,-148.66 800.5,-139.73"/>
<polygon fill="black" stroke="black" points="804,-139.61 800.5,-129.61 797,-139.61 804,-139.61"/>
</g>
<!-- S1aL2bR1eR2a -->
<g id="node26" class="node">
<title>S1aL2bR1eR2a</title>
<polygon fill="red" stroke="black" points="903.5,-83.5 903.5,-129.5 983.5,-129.5 983.5,-83.5 903.5,-83.5"/>
<text text-anchor="middle" x="923" y="-102.8" font-family="Times,serif" font-size="14.00">R2a</text>
<polyline fill="none" stroke="black" points="942.5,-83.5 942.5,-129.5 "/>
<text text-anchor="middle" x="963" y="-114.3" font-family="Times,serif" font-size="14.00"> </text>
<polyline fill="none" stroke="black" points="942.5,-106.5 983.5,-106.5 "/>
<text text-anchor="middle" x="963" y="-91.3" font-family="Times,serif" font-size="14.00">????</text>
</g>
<!-- S1aL2bR1eR2b -->
<g id="node27" class="node">
<title>S1aL2bR1eR2b</title>
<polygon fill="red" stroke="black" points="899,-0.5 899,-46.5 980,-46.5 980,-0.5 899,-0.5"/>
<text text-anchor="middle" x="919" y="-19.8" font-family="Times,serif" font-size="14.00">R2b</text>
<polyline fill="none" stroke="black" points="939,-0.5 939,-46.5 "/>
<text text-anchor="middle" x="959.5" y="-31.3" font-family="Times,serif" font-size="14.00"> </text>
<polyline fill="none" stroke="black" points="939,-23.5 980,-23.5 "/>
<text text-anchor="middle" x="959.5" y="-8.3" font-family="Times,serif" font-size="14.00">????</text>
</g>
<!-- S1aL2bR1eR2a&#45;&gt;S1aL2bR1eR2b -->
<g id="edge27" class="edge">
<title>S1aL2bR1eR2a&#45;&gt;S1aL2bR1eR2b</title>
<path fill="none" stroke="black" d="M942.41,-83.37C942,-75.15 941.53,-65.66 941.09,-56.73"/>
<polygon fill="black" stroke="black" points="944.58,-56.42 940.59,-46.61 937.59,-56.77 944.58,-56.42"/>
</g>
<!-- S1aL2bR1e&#45;&gt;S1aL2bR1eR2a -->
<g id="edge26" class="edge">
<title>S1aL2bR1e&#45;&gt;S1aL2bR1eR2a</title>
<path fill="none" stroke="black" d="M952.22,-166.37C951,-158.15 949.6,-148.66 948.27,-139.73"/>
<polygon fill="black" stroke="black" points="951.7,-138.99 946.78,-129.61 944.78,-140.01 951.7,-138.99"/>
</g>
<!-- S1aL2bR1f -->
<g id="node29" class="node">
<title>S1aL2bR1f</title>
<polygon fill="red" stroke="black" points="1005.5,-83.5 1005.5,-129.5 1131.5,-129.5 1131.5,-83.5 1005.5,-83.5"/>
<text text-anchor="middle" x="1024" y="-102.8" font-family="Times,serif" font-size="14.00">R1f</text>
<polyline fill="none" stroke="black" points="1042.5,-83.5 1042.5,-129.5 "/>
<text text-anchor="middle" x="1087" y="-114.3" font-family="Times,serif" font-size="14.00">component 6</text>
<polyline fill="none" stroke="black" points="1042.5,-106.5 1131.5,-106.5 "/>
<text text-anchor="middle" x="1087" y="-91.3" font-family="Times,serif" font-size="14.00">[state 6]</text>
</g>
<!-- S1aL2bR1e&#45;&gt;S1aL2bR1f -->
<g id="edge29" class="edge">
<title>S1aL2bR1e&#45;&gt;S1aL2bR1f</title>
<path fill="none" stroke="black" d="M986.38,-166.37C999.58,-156.9 1015.15,-145.74 1029.17,-135.69"/>
<polygon fill="black" stroke="black" points="1031.57,-138.28 1037.66,-129.61 1027.49,-132.59 1031.57,-138.28"/>
</g>
<!-- S1aL2bR1f1a -->
<g id="node30" class="node">
<title>S1aL2bR1f1a</title>
<polygon fill="red" stroke="black" points="998.5,-0.5 998.5,-46.5 1138.5,-46.5 1138.5,-0.5 998.5,-0.5"/>
<text text-anchor="middle" x="1024" y="-19.8" font-family="Times,serif" font-size="14.00">R1f1a</text>
<polyline fill="none" stroke="black" points="1049.5,-0.5 1049.5,-46.5 "/>
<text text-anchor="middle" x="1094" y="-31.3" font-family="Times,serif" font-size="14.00">component 7</text>
<polyline fill="none" stroke="black" points="1049.5,-23.5 1138.5,-23.5 "/>
<text text-anchor="middle" x="1094" y="-8.3" font-family="Times,serif" font-size="14.00">[state 7]</text>
</g>
<!-- S1aL2bR1f&#45;&gt;S1aL2bR1f1a -->
<g id="edge30" class="edge">
<title>S1aL2bR1f&#45;&gt;S1aL2bR1f1a</title>
<path fill="none" stroke="black" d="M1068.5,-83.37C1068.5,-75.15 1068.5,-65.66 1068.5,-56.73"/>
<polygon fill="black" stroke="black" points="1072,-56.61 1068.5,-46.61 1065,-56.61 1072,-56.61"/>
</g>
<!-- S1aL2bR1g -->
<g id="node31" class="node">
<title>S1aL2bR1g</title>
<polygon fill="red" stroke="black" points="1157,-0.5 1157,-46.5 1286,-46.5 1286,-0.5 1157,-0.5"/>
<text text-anchor="middle" x="1177" y="-19.8" font-family="Times,serif" font-size="14.00">R1g</text>
<polyline fill="none" stroke="black" points="1197,-0.5 1197,-46.5 "/>
<text text-anchor="middle" x="1241.5" y="-31.3" font-family="Times,serif" font-size="14.00">component 8</text>
<polyline fill="none" stroke="black" points="1197,-23.5 1286,-23.5 "/>
<text text-anchor="middle" x="1241.5" y="-8.3" font-family="Times,serif" font-size="14.00">[state 8]</text>
</g>
<!-- S1aL2bR1f&#45;&gt;S1aL2bR1g -->
<g id="edge31" class="edge">
<title>S1aL2bR1f&#45;&gt;S1aL2bR1g</title>
<path fill="none" stroke="black" d="M1110.31,-83.37C1128.94,-73.5 1151.07,-61.79 1170.65,-51.42"/>
<polygon fill="black" stroke="black" points="1172.54,-54.38 1179.74,-46.61 1169.27,-48.19 1172.54,-54.38"/>
</g>
<!-- S1aL2b&#45;&gt;S1aL2bR1a -->
<g id="edge18" class="edge">
<title>S1aL2b&#45;&gt;S1aL2bR1a</title>
<path fill="none" stroke="black" d="M546.6,-581.37C548.12,-573.15 549.88,-563.66 551.53,-554.73"/>
<polygon fill="black" stroke="black" points="555.03,-555.08 553.41,-544.61 548.14,-553.8 555.03,-555.08"/>
</g>
<!-- S1a -->
<g id="node33" class="node">
<title>S1a</title>
<polygon fill="green" stroke="black" points="409,-747.5 409,-793.5 508,-793.5 508,-747.5 409,-747.5"/>
<text text-anchor="middle" x="427.5" y="-766.8" font-family="Times,serif" font-size="14.00">S1a</text>
<polyline fill="none" stroke="black" points="446,-747.5 446,-793.5 "/>
<text text-anchor="middle" x="477" y="-778.3" font-family="Times,serif" font-size="14.00">App</text>
<polyline fill="none" stroke="black" points="446,-770.5 508,-770.5 "/>
<text text-anchor="middle" x="477" y="-755.3" font-family="Times,serif" font-size="14.00">[state 1]</text>
</g>
<!-- S1a&#45;&gt;S1aL1a -->
<g id="edge1" class="edge">
<title>S1a&#45;&gt;S1aL1a</title>
<path fill="none" stroke="black" d="M442.38,-747.37C435.94,-738.53 428.42,-728.21 421.5,-718.7"/>
<polygon fill="black" stroke="black" points="424.32,-716.63 415.6,-710.61 418.66,-720.75 424.32,-716.63"/>
</g>
<!-- S1a&#45;&gt;S1aL2a -->
<g id="edge17" class="edge">
<title>S1a&#45;&gt;S1aL2a</title>
<path fill="none" stroke="black" d="M478.17,-747.37C486.19,-738.35 495.58,-727.79 504.17,-718.12"/>
<polygon fill="black" stroke="black" points="506.82,-720.41 510.85,-710.61 501.59,-715.76 506.82,-720.41"/>
</g>
</g>
</svg>
